<?xml version="1.0" encoding="utf-8"?>
<!-- Generator: Adobe Illustrator 16.0.0, SVG Export Plug-In . SVG Version: 6.00 Build 0)  -->
<!DOCTYPE svg PUBLIC "-//W3C//DTD SVG 1.1//EN" "http://www.w3.org/Graphics/SVG/1.1/DTD/svg11.dtd">
<svg version="1.1" id="Layer_1" xmlns="http://www.w3.org/2000/svg" xmlns:xlink="http://www.w3.org/1999/xlink" x="0px" y="0px"
	 width="149.333px" height="35.667px" viewBox="0 0 149.333 35.667" enable-background="new 0 0 149.333 35.667"
	 xml:space="preserve">
<g>
	<path d="M14.008,32.382h-3.279V6.076h3.279V32.382z"/>
	<path d="M27.616,25.543L35.43,6.076h3.594l-11.409,27.7l-11.444-27.7h3.594L27.616,25.543z"/>
	<path d="M38.539,6.076h3.767l6.454,11.236l6.455-11.236h3.768l-8.583,14.863v11.443h-3.278V20.939L38.539,6.076z"/>
	<path d="M74.614,29.381h7.99v3.001h-11.27V6.076h3.278L74.614,29.381L74.614,29.381z"/>
	<path d="M87.941,32.382h-3.278V6.076h3.278V32.382z"/>
	<path d="M96.596,25.789l-3.002,6.594h-3.523l12.56-27.423l12.56,27.423h-3.522l-3.001-6.594H96.596z M102.63,12.147l-4.673,10.644
		h9.35L102.63,12.147z"/>
	<path d="M143.104,19.229c0,7.813-6.178,13.711-13.781,13.711c-7.608,0-13.78-5.898-13.78-13.711c0-7.538,6.243-13.712,13.78-13.712
		C136.858,5.517,143.104,11.691,143.104,19.229z M139.824,19.229c0-5.793-4.325-10.643-10.501-10.643s-10.5,4.85-10.5,10.643
		c0,6,4.813,10.641,10.5,10.641S139.824,25.229,139.824,19.229z"/>
</g>
</svg>
